# xmcd CD database file
#
# Track frame offsets:
#	150
#	21544
#	36347
#	54830
#	76460
#	95766
#	116094
#	137055
#	154046
#	170138
#	188858
#	208438
#	223711
#	240630
#	260686
#	277228
#
# Disc length: 3904 seconds
#
# Revision: 1
# Processed by: cddbd v1.5.2PL0 Copyright (c) Steve Scherf et al.
# Submitted via: CDex 1.40Release
#
DISCID=fe0f3e10
DTITLE=John Kay - 2004. Heretics and Privateers
DYEAR=2004
DGENRE=Blues
TTITLE0=Heretics and Privateers 
TTITLE1=Don't Waste My Time 
TTITLE2=Ain't That A Shame 
TTITLE3=Dodging Bullets 
TTITLE4=She's Got The Goods 
TTITLE5=For The Women In My Life 
TTITLE6=To Be Alive 
TTITLE7=I Will Not Be Denied 
TTITLE8=Endless Commercial 
TTITLE9=The Ice Age 
TTITLE10=Sleep With One Eye Open 
TTITLE11=The Back Page 
TTITLE12=She's Got The Goods  (acoustic)
TTITLE13=For The Women In My Life  (acoustic)
TTITLE14=I Will Not Be Denied  (acoustic)
TTITLE15=Endless Commercial  (acoustic)
EXTD=YEAR: 2004 ID3G: 0
EXTT0=
EXTT1=
EXTT2=
EXTT3=
EXTT4=
EXTT5=
EXTT6=
EXTT7=
EXTT8=
EXTT9=
EXTT10=
EXTT11=
EXTT12=
EXTT13=
EXTT14=
EXTT15=
PLAYORDER=
